<?xml version="1.0" encoding="utf-8"?>
<!-- Generator: Adobe Illustrator 21.1.0, SVG Export Plug-In . SVG Version: 6.00 Build 0)  -->
<svg version="1.1" id="Layer_1" xmlns="http://www.w3.org/2000/svg" xmlns:xlink="http://www.w3.org/1999/xlink" x="0px" y="0px"
	 viewBox="0 0 300 140" style="enable-background:new 0 0 300 140;" xml:space="preserve">
<style type="text/css">
	.st0{fill:#FFFFFF;}
</style>
<g>
	<g>
		<polygon class="st0" points="34.8,47.2 44.5,47.2 39.6,35 		"/>
		<polygon class="st0" points="86,88.4 86,94.1 102.2,94.1 102.2,100.2 86,100.2 86,106.8 104,106.8 112.3,97.6 104.4,88.4 		"/>
		<polygon class="st0" points="212.6,35 207.3,47.2 217.4,47.2 		"/>
		<polygon class="st0" points="132.9,110.3 132.9,85.3 121.5,97.6 		"/>
		<path class="st0" d="M154.3,92.3c-0.4-2.6-2.2-3.9-4.8-3.9h-9.2v7.9h9.6C152.6,96.3,154.3,94.9,154.3,92.3z"/>
		<path class="st0" d="M185,95.4c0.9-0.4,1.3-1.8,1.3-3.1c0.4-1.7-0.4-2.6-1.3-3.1c-0.9-0.4-2.2-0.4-3.5-0.4h-8.8v7h8.8
			C182.8,95.8,184.1,95.8,185,95.4z"/>
		<path class="st0" d="M248,23.6v5.3l-2.6-5.3h-20.6v5.3l-2.6-5.3h-28c-4.8,0-8.8,0.9-12.3,2.6v-2.6h-19.7V24v2.2
			c-2.2-1.8-4.8-2.6-8.3-2.6H83.4l-4.8,10.9l-4.8-10.9H58h-6.6v5.3l-2.2-5.3h-0.4H30l-8.8,20.6L11.2,66.5L11,66.9h0.2h22.3h0.3
			l0.2-0.4l2.6-6.6h5.7l2.6,7h25.4v-0.4v-4.8l2.2,5.3h12.7l2.2-5.3v4.8v0.4h10.1h50.3h0.4V55.5h0.9c0.9,0,0.9,0,0.9,1.3v9.6h31.5
			v-2.6c2.6,1.3,6.6,2.6,11.8,2.6h13.1l2.6-7h6.1l2.6,7h25.4v-4.4v-2.2l3.9,6.6h0.9h0.4h19.3V23.6H248L248,23.6L248,23.6z
			 M99.6,60.4h-4.4h-2.6v-2.6V36.3l-0.4,1v0L82,60.4h-0.3h-2.3h-3.8L65,36.3v24.1H50.2l-3.1-6.6H32.2l-3.1,6.6h-7.7l13-30.6h10.9
			L57.6,59V29.7h2.6h9l0.2,0.4h0l5.5,12l4,9l0.1-0.5l8.8-21h11.8L99.6,60.4L99.6,60.4L99.6,60.4z M129.8,36.3h-17.1V42h16.6v6.1
			h-16.6v6.1h17.1v6.6h-24.5V29.7h24.5V36.3L129.8,36.3z M161.1,47.6C161.1,47.6,161.1,47.6,161.1,47.6c0.2,0.2,0.3,0.4,0.5,0.5
			c0.8,1.1,1.5,2.7,1.6,5.1c0,0,0,0.1,0,0.1c0,0,0,0,0,0.1c0,0,0,0,0,0c0,0.2,0,0.5,0,0.8v6.1h-6.6v-3.5c0-1.8,0-4.4-1.3-6.1
			c-0.4-0.4-0.8-0.7-1.3-0.9c-0.7-0.4-1.9-0.4-4-0.4h-7.9v10.9h-7.4V29.7h16.6c3.9,0,6.6,0,8.8,1.3c2.1,1.3,3.4,3.4,3.5,6.8
			c-0.1,4.7-3.1,7.2-5.2,8.1C158.3,45.9,159.7,46.2,161.1,47.6z M175.8,60.4h-7.4V29.7h7.4V60.4z M261.2,60.4h-9.6l-14-23.2v19.3
			l0,0v4h-7.4v0h-7.4l-2.6-6.6h-15.3l-2.6,7h-8.3c-3.5,0-7.9-0.9-10.5-3.5c-2.6-2.6-3.9-6.1-3.9-11.8c0-4.4,0.9-8.8,3.9-12.3
			c2.2-2.6,6.1-3.5,10.9-3.5h7v6.6h-7c-2.6,0-3.9,0.4-5.7,1.8c-1.3,1.3-2.2,3.9-2.2,7c0,3.5,0.4,5.7,2.2,7.4
			c1.3,1.3,3.1,1.8,5.3,1.8h3.1l10.1-24.1h4.4h6.6l12.3,29.3V58v-9.9v-0.9V30.2H241l12.7,21.5V30.2h7.4L261.2,60.4L261.2,60.4
			L261.2,60.4z"/>
		<path class="st0" d="M154.8,42.5c0.1-0.1,0.2-0.3,0.3-0.5c0.4-0.6,0.9-1.8,0.6-3.3c0-0.1,0-0.3-0.1-0.4c0,0,0-0.1,0-0.1l0,0
			c-0.2-0.7-0.8-1.2-1.3-1.5c-0.9-0.4-2.2-0.4-3.5-0.4h-8.8v7h8.8c1.3,0,2.6,0,3.5-0.4c0.1-0.1,0.2-0.2,0.4-0.3l0,0
			C154.7,42.6,154.8,42.5,154.8,42.5z"/>
		<path class="st0" d="M287,104.1c0-3.1-0.9-6.1-2.2-8.3V76.1h0v-1.3c0,0-18.4,0-21.1,0c-2.7,0-6,2.6-6,2.6v-2.6h-20.1
			c-3.1,0-7,0.9-8.8,2.6v-2.6h-35.9v1.3v1.3c-2.6-2.2-7.4-2.6-9.6-2.6h-23.6v1.3v1.3c-2.2-2.2-7.4-2.6-10.1-2.6h-26.3l-6.1,6.6
			l-5.7-6.6h-1.8h-3H72v1.3v3.5V119h38.5l6.3-6.3l5.5,6.3h0.4H145h1h0.4h0.4v-4.4V109h2.2c3.1,0,7,0,10.1-1.3v10.9v0.9h19.7v-0.9
			v-10.5h0.9c1.3,0,1.3,0,1.3,1.3v9.2v0.9h59.5c3.9,0,7.9-0.9,10.1-2.6v1.8v0.9h18.8c3.9,0,7.9-0.4,10.5-2.2c4-2.4,6.6-6.7,6.9-11.8
			c0-0.2,0-0.3,0.1-0.5l0,0C287,104.7,287,104.4,287,104.1z M149.1,101.5h-8.8v1.3v2.6v2.6v4.8h-14.4l-8.4-9.6l0,0l-0.4-0.5
			l-9.6,10.1h-28V82.3h28.5l7.8,8.5l1.6,1.8l0.2-0.2l9.2-10.1H150c4.5,0,9.5,1.1,11.5,5.7c0.2,0.9,0.4,1.9,0.4,3.1
			C161.8,99.8,155.7,101.5,149.1,101.5z M192.9,101.1c0.9,1.3,1.3,3.1,1.3,5.7v6.1h-7.4V109c0-1.8,0-4.8-1.3-6.1
			c-0.9-1.3-2.6-1.3-5.3-1.3h-7.9v11.4h-7.4V81.8h16.6c3.5,0,6.6,0,8.8,1.3c2.2,1.3,3.9,3.5,3.9,7c0,4.8-3.1,7.4-5.3,8.3
			C191.1,99.3,192.4,100.2,192.9,101.1z M223.1,88.4H206v5.7h16.6v6.1H206v6.1h17.1v6.6h-24.5V81.8h24.5V88.4z M241.5,112.9h-14
			v-6.6h14c1.3,0,2.2,0,3.1-0.9c0.4-0.4,0.9-1.3,0.9-2.2c0-0.9-0.4-1.7-0.9-2.2c-0.4-0.4-1.3-0.9-2.6-0.9c-7-0.4-15.3,0-15.3-9.6
			c0-4.4,2.6-9.2,10.5-9.2h14.4v7.4H238c-1.3,0-2.2,0-3.1,0.4c-0.9,0.4-0.9,1.3-0.9,2.2c0,1.3,0.9,1.8,1.7,2.2
			c0.9,0.4,1.8,0.4,2.6,0.4h3.9c3.9,0,6.6,0.9,8.3,2.6c1.3,1.3,2.2,3.5,2.2,6.6C252.9,109.8,248.9,112.9,241.5,112.9z M279.1,109.8
			c-1.7,1.8-4.8,3.1-9.2,3.1h-14v-6.6h14c1.3,0,2.2,0,3.1-0.9c0.4-0.4,0.9-1.3,0.9-2.2c0-0.9-0.4-1.7-0.9-2.2
			c-0.4-0.4-1.3-0.9-2.6-0.9c-7-0.4-15.3,0-15.3-9.6c0-4.2,2.4-7.9,8.3-9c0.7-0.1,1.4-0.2,2.3-0.2H280v7.4h-9.6h-3.5h-0.4
			c-1.3,0-2.2,0-3.1,0.4c-0.4,0.4-0.9,1.3-0.9,2.2c0,1.3,0.4,1.8,1.8,2.2c0.9,0.4,1.8,0.4,2.6,0.4h0.4h3.5c1.9,0,3.4,0.2,4.7,0.7
			c1.2,0.4,5.2,2.2,6.1,6.9c0.1,0.5,0.1,1,0.1,1.6C281.7,105.9,280.9,108.1,279.1,109.8z"/>
	</g>
</g>
</svg>
