<?xml version="1.0" encoding="utf-8"?>
<!-- Generator: Adobe Illustrator 21.1.0, SVG Export Plug-In . SVG Version: 6.00 Build 0)  -->
<svg version="1.1" id="Layer_1" xmlns="http://www.w3.org/2000/svg" xmlns:xlink="http://www.w3.org/1999/xlink" x="0px" y="0px"
	 viewBox="0 0 853 182" style="enable-background:new 0 0 853 182;" xml:space="preserve">
<style type="text/css">
	.st0{fill-rule:evenodd;clip-rule:evenodd;fill:#FFFFFF;}
	.st1{fill:#FFFFFF;}
</style>
<g>
	<path class="st0" d="M719.5,64.4c6,2.4,12,4.9,17.9,7.7c-18.8,7.6-36.9,16.6-54.2,27c-5.9-3.1-11.8-6-17.8-8.7
		C682.7,80.3,700.7,71.6,719.5,64.4"/>
	<path class="st0" d="M697.1,56.5c-19.5,6.2-38.2,14.2-56,24c5.7,2,11.3,4.2,16.8,6.6c17.2-10.1,35.4-18.7,54.4-25.4
		C707.3,59.8,702.3,58.1,697.1,56.5"/>
	<path class="st0" d="M753.3,138.2c0-2.2,1.8-3.9,4.1-3.9c2.3,0,4.1,1.8,4.1,3.9c0,2.2-1.8,4-4.1,4
		C755.2,142.2,753.3,140.5,753.3,138.2 M754.1,138.2c0,1.8,1.5,3.2,3.3,3.2c1.8,0,3.3-1.4,3.3-3.2c0-1.8-1.5-3.2-3.3-3.2
		C755.6,135.1,754.1,136.5,754.1,138.2"/>
	<path class="st0" d="M759.5,140.5h-0.8l-1.3-2h-0.8v2h-0.7V136h2c0.4,0,0.8,0,1.1,0.2c0.3,0.2,0.5,0.6,0.5,0.9
		c0,0.9-0.6,1.2-1.4,1.2L759.5,140.5z M757.3,137.9c0.6,0,1.5,0.1,1.5-0.7c0-0.6-0.5-0.6-1.1-0.6h-1.2v1.3H757.3z"/>
	<path class="st0" d="M760.2,63.6C744.9,56.2,729,50,712.6,45c-5.8,1.7-11.5,3.5-17.1,5.4c16.8,5,33.2,11.3,49,18.8
		C749.7,67.3,754.9,65.4,760.2,63.6"/>
	<path class="st0" d="M785.2,56.1c-15.7-6.8-31.9-12.6-48.4-17.1c-5.3,1.1-10.5,2.3-15.7,3.6c16.4,4.8,32.4,10.9,47.8,18.1
		C774.3,59.2,779.7,57.6,785.2,56.1"/>
	<path class="st0" d="M825.3,69.6c-39.3,13.2-76.1,32.1-109.4,55.8c8.3,5.1,16.5,10.5,24.4,16.3C771.6,116.7,806.5,96,844,80.2
		C837.9,76.5,831.6,73,825.3,69.6"/>
	<path class="st0" d="M798.3,56.8C757.4,67.6,719,85,684.3,108c7.8,3.8,15.5,7.9,23,12.3c34-23.5,71.6-41.8,111.8-53.9
		C812.3,63,805.3,59.8,798.3,56.8"/>
	<path class="st1" d="M241.5,70.2c14.4,0,21.5,10.5,21.5,24.8c0,14.8-6.8,25.2-21.5,25.2c-14.6,0-21.5-10.3-21.5-25.2
		C220,80.7,227.2,70.2,241.5,70.2 M241.5,110.5c3.8,0,5.5-3.4,5.5-15.5c0-11-1.2-15.1-5.5-15.1c-4.4,0-5.5,4.1-5.5,15.1
		C236,107,237.7,110.5,241.5,110.5"/>
	<path class="st1" d="M272.9,82.3h-6.3V71.4h6.3v-5.3c0-11.7,5.8-16,16-16c3,0,5.3,0.3,7.8,0.6v11.8c-0.8-0.2-2-0.4-2.8-0.4
		c-4.1,0-5.5,1.6-5.5,4.5v4.8h8.4v10.8h-8.4v36.9h-15.4V82.3z"/>
	<path class="st1" d="M93.5,84.7c0-2.8-1.3-4.7-4-4.7c-3.7,0-4.9,3.5-5,6.3L71,83.5c1.7-9.4,10.3-13.2,19-13.2
		c9.2,0,18.8,4,18.8,14.5v26.6c0,5.4,0.9,7,1.4,7.7H94.4c-0.3-1.3-0.4-3.6-0.5-4.4c-2.6,2.8-7.2,5.3-11.7,5.3
		c-7.7,0-13.5-5.2-13.3-14C69.3,93.7,83.3,90,93.5,88.8V84.7z M93.5,96.2c-5.4,0.5-9.4,2.6-9.4,8.7c0,3.3,1.7,5,4.5,5
		c1.7,0,3.6-1.2,4.9-3V96.2z"/>
	<path class="st1" d="M133.2,85v34.1h-15.4V71.4h15l0.1,4.9h0.2c3.2-3.2,7.4-6,13.4-6c6.7,0,10.6,4.5,10.6,11.1v37.7h-15.4V86.3
		c0-2.7-1-4.2-3.6-4.2C136.5,82.1,134.6,83.2,133.2,85"/>
	<polygon class="st1" points="166.7,51.5 182.1,51.5 182.1,85.8 182.3,85.8 193.6,71.4 208.9,71.4 196,86.1 209,119.1 193,119.1 
		185.5,98.3 185.3,98.3 182.1,102 182.1,119.1 166.7,119.1 	"/>
	<path class="st1" d="M52.6,83.9c7.3,2.4,12.6,8.4,12.6,17.1c0,11.6-9.3,18.1-22.1,18.1H17V51.5h26.7c12,0,19.9,7.2,19.9,16.5
		c0,8.8-6.1,13.5-11,15.4V83.9z M33.6,106.6h6.3c3.7,0,8.6-1.6,8.6-8.5c0-5-3.1-8.4-8.6-8.4h-6.3V106.6z M33.6,78.3h5.6
		c6.2,0,8.6-3.3,8.6-7.3c0-6.5-4.4-7.5-8.2-7.5h-6V78.3z"/>
	<path class="st1" d="M608.5,84.7c0-2.8-1.3-4.7-4-4.7c-3.7,0-4.9,3.5-5,6.3L586,83.5c1.7-9.4,10.3-13.2,19-13.2
		c9.2,0,18.8,4,18.8,14.5v26.6c0,5.4,0.9,7,1.4,7.7h-15.9c-0.3-1.3-0.4-3.6-0.5-4.4c-2.7,2.8-7.2,5.3-11.7,5.3
		c-7.7,0-13.5-5.2-13.3-14c0.3-12.4,14.4-16.1,24.5-17.2V84.7z M608.5,96.2c-5.4,0.5-9.4,2.6-9.4,8.7c0,3.3,1.7,5,4.5,5
		c1.8,0,3.6-1.2,4.9-3V96.2z"/>
	<path class="st1" d="M450.3,98.6c-0.2,4.2,0.9,11.3,7.1,11.3c3.7,0,6.8-2.7,7.6-6.5l10.4,3.8c-0.7,2.2-5.4,13-19.1,13
		c-14.7,0-21.4-11.9-21.4-25.1c0-13.5,7-24.9,21.2-24.9c14.8,0,19.9,12.7,19.9,25.2v3.2H450.3z M461.8,89.5c0.1-4.4-0.5-9.6-5.8-9.6
		c-4.4,0-5.9,5.1-5.7,9.6H461.8z"/>
	<rect x="517.5" y="71.4" class="st1" width="15.4" height="47.7"/>
	<rect x="517.5" y="51.5" class="st1" width="15.4" height="13.7"/>
	<path class="st1" d="M567.1,89.1c0-1.9-0.1-4.2-0.8-6c-0.8-1.9-2-3.2-4.5-3.2c-5.1,0-5.7,6.3-5.7,15.8c0,10.7,1.7,14.2,5.7,14.2
		c5.4,0,5.9-5.5,5.9-9.1l12,1.7c-1.1,11.6-7.8,17.7-19,17.7c-13.9,0-21.1-12.1-21.1-23.9c0-13,7.2-26,21.8-26
		c16.3,0,18.8,14.2,18.8,18.9H567.1z"/>
	<path class="st1" d="M323.4,51.5h22.4l14.4,67.6h-16.6l-2.7-13.7h-15.7l-2.9,13.7h-14.8L323.4,51.5z M327.7,93.5h10.9l-4.9-27.5
		h-0.4L327.7,93.5z"/>
	<path class="st1" d="M482.4,71.4h14.9l0.1,6.4h0.3c3.1-5,8.9-7.6,14.8-7.6v15.6c-1.7-0.7-3.6-1.3-6.3-1.3c-3.9,0-6.6,1.6-8.4,3.7
		v30.9h-15.4V71.4z"/>
	<path class="st1" d="M404.3,85.1v34h-15.1V86.4c0-2.6-0.8-4.3-3.6-4.3c-1.6,0-3.9,1.2-5.2,2.9v34h-15.1V71.4h15l0.1,4.8h0.2
		c3.2-3,8.1-6,13.8-6c4.7,0,7.8,2.7,9.2,6.4h0.2c2.7-2.9,7.3-6.4,13.7-6.4c6.4,0,10.7,4.2,10.7,10.8v38h-15.1V86.4
		c0-2.6-0.8-4.3-3.6-4.3C407.5,82.2,405.3,83.8,404.3,85.1"/>
</g>
</svg>
