<?xml version="1.0" encoding="utf-8"?>
<!-- Generator: Adobe Illustrator 21.1.0, SVG Export Plug-In . SVG Version: 6.00 Build 0)  -->
<svg version="1.1" id="Layer_1" xmlns="http://www.w3.org/2000/svg" xmlns:xlink="http://www.w3.org/1999/xlink" x="0px" y="0px"
	 viewBox="0 0 853 182" style="enable-background:new 0 0 853 182;" xml:space="preserve">
<style type="text/css">
	.st0{fill:#FFFFFF;}
</style>
<path class="st0" d="M406.5,147.4c4.3-6.6,8-12.7,12.1-18.6c0.7-1,2.8-1.3,4.2-1.3c19.1-0.1,38.1,0,57.2-0.1
	c9.6,0,11.7-2.1,11.8-11.8c0-2.3,0-4.5,0-6.8c-0.1-7.9-2.2-10-10-10c-15.5,0-30.9,0.2-46.4-0.2c-4.8-0.1-9.8-1.3-14.2-3.2
	c-6.9-3-10.8-9.1-12.4-16.3c-2.1-8.8-2.2-17.8-0.2-26.6c2.5-10.9,11-18.3,22.2-19.4c5.6-0.5,11.2-0.5,16.8-0.5
	c20.1-0.1,40.3,0,60.4,0c0.9,0,1.8,0.1,3.6,0.2c-2.9,4.7-6,8.7-8.1,13.1c-2.6,5.3-6.2,6.7-11.9,6.5c-17.1-0.4-34.1-0.1-51.2-0.1
	c-7.5,0-9.5,2.1-9.6,9.5c0,2.7-0.1,5.3,0,8c0.2,5.9,2.4,8.2,8.4,8.3c14.5,0.1,29.1,0,43.6,0.1c3.1,0,6.1,0.2,9.2,0.6
	c12.5,1.7,20.8,9,22.4,21.5c1.1,8.2,1.2,16.9,0,25c-2.1,14-12.2,21.9-28.1,22.1C460,147.7,433.7,147.4,406.5,147.4z"/>
<path class="st0" d="M559.8,52.4c0,9.1,0,17.5,0,26.2c20.9,0,41.6,0,62.7,0c0,6.6,0,12.7,0,19.3c-20.7,0-41.4,0-62.5,0
	c0,9.9,0,19.4,0,29.5c1.6,0,3.1,0,4.7,0c18.9,0,37.9,0,56.8-0.1c2.5,0,4.1,0.6,5.5,2.9c3.3,5.6,6.9,11,10.6,16.9
	c-33.9,0-67.2,0-101,0c0-1.5,0-2.9,0-4.3c0-35.3,0-70.7-0.1-106c0-2.9,0.5-4.2,3.9-4.2c31.1,0.1,62.1,0.1,93.2,0.1
	c0.9,0,1.8,0.2,3.5,0.3c-4.1,6.4-7.9,12.5-11.9,18.4c-0.6,0.8-2.6,0.8-4,0.8c-18.9,0.1-37.9,0-56.8,0
	C563,52.4,561.6,52.4,559.8,52.4z"/>
<path class="st0" d="M165.9,78.1c21.5,0,42.3,0,63.7,0c0-2.3,0-4.4,0-6.5c0-11.6,0.1-23.2-0.1-34.8c0-2.8,0.6-4.1,3.7-4
	c6.2,0.2,12.5,0.1,18.9,0.1c0,38.4,0,76.3,0,114.5c-7.5,0-14.7,0-22.5,0c0-16.3,0-32.5,0-48.9c-21.4,0-42.2,0-63.6,0
	c0,16.3,0,32.5,0,48.9c-7.8,0-15,0-22.6,0c0-38,0-75.9,0-114.1c7.4,0,14.7,0,22.4,0C165.9,48,165.9,62.8,165.9,78.1z"/>
<path class="st0" d="M265.6,147.5c0.9-2,1.4-3.5,2.1-4.9c16.8-35.4,33.6-70.8,50.3-106.3c1.3-2.7,2.7-3.8,5.7-3.7
	c5.3,0.2,10.7-0.1,16,0.2c1.4,0.1,3.3,1.2,3.9,2.3c17.7,36.9,35.2,73.9,52.7,110.8c0.1,0.2,0.1,0.5,0.1,1.4
	c-8.1,0-16.1,0.1-24.1-0.1c-0.7,0-1.7-1.5-2.1-2.5c-2.8-6.1-5.5-12.1-8.1-18.3c-0.9-2.2-2.2-2.9-4.5-2.9c-17.6,0.1-35.2,0.1-52.8,0
	c-2.4,0-3.6,0.7-4.5,2.9c-2.6,6.1-5.3,12.2-8.2,18.2c-0.6,1.2-2.4,2.6-3.7,2.6C281.1,147.7,273.7,147.5,265.6,147.5z M352,104.2
	c-7-15.9-13.7-31.4-20.9-47.8c-7.2,16.5-13.9,32-20.8,47.8C324.5,104.2,337.9,104.2,352,104.2z"/>
<path class="st0" d="M129.3,147.5c-25.6,0-50.3,0.4-74.9-0.1c-20.5-0.5-33-13.9-33.3-34.4c-0.2-15.3-0.2-30.7,0-46
	c0.3-20,12.1-33.1,32-33.8c24.8-0.8,49.6-0.3,74.4-0.4c0.4,0,0.7,0.2,1.6,0.5c-4,6.3-7.8,12.5-11.9,18.5c-0.6,0.9-2.6,1.1-3.9,1.1
	C97,53,80.7,53,64.4,53c-1.2,0-2.4,0-3.6,0C49.6,53.3,45,57.7,44.9,68.9c-0.1,13.9-0.1,27.7,0,41.6c0.1,11.4,4.7,16,16.2,16.1
	c16.7,0.2,33.3,0.2,50-0.1c3.9-0.1,6,1.2,7.9,4.5C122,136.4,125.6,141.6,129.3,147.5z"/>
<path class="st0" d="M826,56.8c-1.7,0-2.8,0-4,0c-28.9,0-57.8-0.1-86.7,0.1c-3.8,0-5.1-1-5-4.9c0.3-9.8,0.1-19.7,0.1-29.6
	c0-5.5,1.6-7.2,7-7.3c14,0,28-0.1,42,0.1c1.7,0,3.8,0.6,5,1.7c13.5,12.6,26.9,25.4,40.3,38.2C825.1,55.4,825.4,55.9,826,56.8z"/>
<path class="st0" d="M789.9,159.6c-0.1-1.7-0.2-2.8-0.2-4c0-28.9,0.1-57.9-0.1-86.8c0-3.9,1.2-5,5-4.9c9.7,0.2,19.5,0.1,29.2,0.1
	c5.6,0,7,1.3,7,6.7c0,14.3,0.1,28.5-0.1,42.8c0,1.9-0.8,4.3-2.1,5.7c-12.1,13-24.4,25.8-36.6,38.6
	C791.5,158.4,790.9,158.8,789.9,159.6z"/>
<path class="st0" d="M687.4,123.8c2,0,3.2,0,4.4,0c28.5,0,57,0,85.5,0c5.2,0,5.3,0,5.3,5.3c0,9.6,0,19.2,0,28.8c0,5.2-1.7,7-6.9,7
	c-14.3,0-28.5,0.1-42.8-0.1c-1.6,0-3.5-0.6-4.6-1.6c-13.2-12.4-26.3-24.9-39.4-37.4C688.5,125.4,688.2,124.9,687.4,123.8z"/>
<path class="st0" d="M722.5,21.1c0.1,1.8,0.2,3.1,0.2,4.3c0,28.5-0.1,57.1,0.1,85.6c0,4-1.1,5.3-5.2,5.2c-9.9-0.3-19.7-0.1-29.6-0.1
	c-4.9,0-6.4-1.5-6.4-6.5c0-14.3-0.1-28.5,0.1-42.8c0-1.7,0.6-3.8,1.7-5c12.3-13.1,24.7-26.1,37.2-39.2
	C721,22.2,721.6,21.8,722.5,21.1z"/>
</svg>
