<?xml version="1.0" encoding="utf-8"?>
<!-- Generator: Adobe Illustrator 21.1.0, SVG Export Plug-In . SVG Version: 6.00 Build 0)  -->
<svg version="1.1" id="Layer_1" xmlns="http://www.w3.org/2000/svg" xmlns:xlink="http://www.w3.org/1999/xlink" x="0px" y="0px"
	 viewBox="0 0 658 182" style="enable-background:new 0 0 658 182;" xml:space="preserve">
<style type="text/css">
	.st0{fill:#FFFFFF;}
	.st1{fill:#54B848;}
</style>
<g id="XMLID_1_">
	<rect id="rect2641" x="2.7" y="2.3" class="st0" width="211.2" height="176.8"/>
	<path id="path2643" class="st0" d="M304.7,83.8h8.4c5.9,0,11.7,1.3,11.7,8.3c0,6.3-6.2,8.4-11.9,8.4h-8.2V83.8L304.7,83.8z
		 M275.3,117.4h47.4c17,0,33.6-2.1,33.6-22.7c0-8.2-7-17-18.4-18.6v-0.2c10.9-2.8,16.8-8.8,16.8-20c0-15.5-13.9-20.1-28.1-20.1
		h-51.4V117.4z M304.7,51.3h8.5c5.6,0,10.8,1.9,10.8,7.9c0,6.2-6,7.8-11.5,7.8h-7.8L304.7,51.3L304.7,51.3z"/>
	<path id="path2645" class="st0" d="M403.8,92.5c0,5.3-3.1,10.9-9.1,10.9c-4.6,0-6.9-1.6-6.9-5.8c0-6.3,7-6.9,13.1-6.9h2.9
		L403.8,92.5L403.8,92.5z M367.9,75.7c5.9-2.9,13.3-5.1,20.3-5.1c7.4,0,15.4,0.9,15.6,8.8c-2.7-0.2-7.4-0.8-11.5-0.8
		c-14.6,0-31.5,3.7-31.5,22.4c0,12.7,11,17.9,22.3,17.9c8.3,0,15.8-3.3,19.9-10.2h0.2v8.8h27.4v-37c0-22.2-20.5-25.2-37.3-25.2
		c-11.4,0-16.7,1.1-25.5,3.5L367.9,75.7L367.9,75.7z"/>
	<path id="path2647" class="st0" d="M439,56.5h27.8V67h0.2c3.5-8.5,11.6-11.9,19.9-11.9c15.7,0,21.4,8.2,21.4,20v42.3h-29.5V82.3
		c0-3.5,0-8.3-5.1-8.3c-5.3,0-5.3,4.8-5.3,8.3v35.1H439L439,56.5L439,56.5z"/>
	<polygon id="polygon2649" class="st0" points="547.8,80.7 548,80.7 564.9,56.5 598.2,56.5 577.6,83.4 599,117.4 564.6,117.4 
		548,87.8 547.8,87.8 547.8,117.4 518.3,117.4 518.3,29.8 547.8,29.8 	"/>
	<path id="path2651" class="st1" d="M0,181.6h216.1V-0.1H0V181.6z M141.9,142.3H91.5V57h25.3v70.2h24.3c16.8,0,23.8-11,23.8-39.1
		c0-28.4-8-36.6-25.1-36.6H84.5v90.8H59.4V51.5H22.7V36.4h125c30.2,0,44.5,14.6,44.5,51.5C192.2,136.3,170.8,142.3,141.9,142.3"/>
</g>
</svg>
