<?xml version="1.0" encoding="utf-8"?>
<!-- Generator: Adobe Illustrator 21.1.0, SVG Export Plug-In . SVG Version: 6.00 Build 0)  -->
<svg version="1.1" id="Layer_1" xmlns="http://www.w3.org/2000/svg" xmlns:xlink="http://www.w3.org/1999/xlink" x="0px" y="0px"
	 viewBox="0 0 212 212" style="enable-background:new 0 0 212 212;" xml:space="preserve">
<style type="text/css">
	.st0{fill:#CD1309;}
	.st1{fill:#FFFF00;}
	.st2{fill:#E3262F;}
	.st3{fill:#7C0F15;}
</style>
<g>
	<g>
		<g>
			<g>
				<path class="st0" d="M0,0h212v212H0V0z"/>
				<path class="st1" d="M48,125c0-2.4-0.3-4.4-1.3-6.2c-1.3-1.5-3.5-1.8-6.9-1.8H32v9h2.5c3.8,0,4.4-0.8,4.4-5H42v14h-2.9
					c0-4.9-0.6-6-4-6H33v8.3c0,1.5,1.2,2.7,2.7,2.7H39v4H20v-4h1.7c1.8,0,3.3-1.5,3.3-3.3v-16.9c0-1.5-1.2-2.7-2.7-2.7H20v-4
					c31,0,0,0,31,0v12L48,125L48,125z"/>
				<path class="st1" d="M117.4,135h-2.7c0,3.4,0,4.9-1.8,4.9c-0.9,0-1.8-0.9-1.8-2.8c0-0.6,0-1.2,0-1.5c-0.3-4.3-1.2-6.1-6.4-7.6
					c5.8-0.6,9.1-3.4,9.1-7.6c0-5.2-3.6-7.3-11.2-7.3H82v3h2.4c2.7,0.6,2.6,3.3,2.6,3.3v17.9c0,2.1-1.2,2.8-3.1,2.8h-2.1
					c-1.8,0-2.8-0.6-3.7-2.8L68.3,113h-7.4l-10.4,24.2c-0.9,2.1-1.5,2.8-4,2.8H46v4h16v-4h-3.3c-1.5,0-2.4,0-2.4-0.9
					c0-0.3,0.3-0.9,0.6-1.5l1.5-3.6h11.4l1.5,3.3c0.3,0.6,0.3,1.2,0.3,1.5c0,1.2-0.9,1.2-2.4,1.2H66v4h34v-4h-3c-1.7,0-3-1.4-3-3v-8
					h3c5.1,0,6.7,0.9,7,6.3v3.4c0.3,4.3,3,5.5,7.3,5.5c3.6,0,6.1-2.1,6.1-7.9C117.4,135.9,117.4,135.3,117.4,135z M59.5,130
					l4.9-11.5l4.5,11.5H59.5z M100.5,126.1l-6.5,0.3V117h6.5c4.3,0,6.5,1.2,6.5,4.5v0.3C107,124.9,104.8,126.1,100.5,126.1z"/>
				<path class="st1" d="M144.9,123c-1.6-4.9-4.7-7.1-9.7-7.1c-5,0-9.1,4.2-9.1,12.6c0,8.4,3.1,12.6,9.1,12.9c4.1,0,7.8-2.3,7.8-5.8
					v-2.7c0,0-0.4-2.1-3.4-1.9H138v-3h15v3h-1.9c-2.1-0.2-2.1,2.2-2.1,2.2v9.8h-2.8l-1.5-2.5c-2.8,2.1-6.8,3.4-10.4,3.4
					c-4.3,0-7.7-1.5-10.4-4.6c-3.1-3.1-4.9-7.1-4.9-11.7c0-4.9,1.5-8.6,4.6-11.7c2.8-2.8,6.8-4,11.1-4c3.4,0,7.4,0.9,9.5,3.4
					l1.5-3.4h2.4v11H144.9z"/>
				<path class="st1" d="M172.4,143.9c-10,0-17.9-6.1-17.9-15.8c0-9.4,7.9-15.5,17.9-15.5c10,0,17.6,6.1,17.6,15.8
					C190,137.8,182.4,143.9,172.4,143.9z M182.7,128.4c0-10.9-7.3-12.1-10.3-12.1c-5.8,0-10.3,4.2-10.3,12.1
					c0,7.9,4.6,12.1,10.3,12.1C175.4,140.5,182.7,139,182.7,128.4z"/>
				<path class="st1" d="M124.4,92c-0.9,1.7-2.9,2-6.3,2H110V74.6c0-2.3,0.6-2.6,3.5-2.6h2.5v-4H98v4h1.8c2.3,0,4.2,1.9,4.2,4.2
					v16.1c0,2.4-1.3,2.7-4.1,2.7H98v3h31V86c0,0-2.9,0-3.4,0C125.6,88.6,125.3,90.3,124.4,92z"/>
				<path class="st1" d="M84.6,94H75V84h2.1c3.6,0,4.2,0.6,4.5,6H85V75h-3.3c-0.3,4.7-0.9,6-4.5,6H75V71h8c5.9,0,7.7,1.2,8,8h4V68
					c-31.9,0-1.8,0-30.1,0H50v4h2c1.7,0,2.3,0.3,2.3,1.2c0,0.6,0,1.2-0.3,2.3L48.6,90c0,0,0,0-0.3,0c-2.6-7.3-6.1-15.7-6.1-15.7
					c-0.3-0.6-0.3-0.9-0.3-1.2c0-0.9,0.6-1.2,2-1.2H46v-4H30v4h2c2.3,0,3.2,1.2,3.5,3.5L29.7,90c0,0,0,0-0.3,0
					c-2.6-7.8-6.1-16-6.1-16c-0.3-0.3,0-0.6,0-0.9C23,72.3,23.9,72,25.6,72H27v-4H12v3h0.6c2.1,0,4,1.2,4.9,4l9.2,23H32l6.5-16.2
					L45.3,98h5.3l8.3-22.5c1.2-2.7,1.8-3.5,4.4-3.5h0.4c2.3,0,4.2,1.9,4.2,4.2v16.1c0,2.4-1.5,2.7-4.2,2.7H62v3h33V86h-3.6
					C91.1,91.7,89.9,94,84.6,94z"/>
				<path class="st1" d="M158.6,86c0,2.6-0.3,4.3-1.1,6c-0.9,1.7-2.9,2-6.3,2H143V74.6c0-2.3,0.6-2.6,3.2-2.6h2.8v-4h-19v4h2.2
					c2.5,0,3.8,0,3.8,2.7v17.6c0,2.4-0.9,2.7-3.8,2.7H132v3h30V86C162,86,159.1,86,158.6,86z"/>
				<path class="st1" d="M193.1,89.1c0,7.1-5.4,9.5-13.3,9.5c-4.8,0-9.7-2.8-10.6-3.7L168,98h-3V86h3.6c0.9,5.7,4.8,8.1,10.3,8.4
					c4.8,0.3,8.2-0.9,8.5-4.2c0.6-3.9-3.6-3.6-7.2-4.2l-5.1-0.9c-7.6-1.5-10.3-3.6-10.3-8.7c-0.3-5.4,4.8-9,11.5-9
					c3.3,0,7.6,0.6,10.6,3l1.5-2.4h2.7v10h-3.3c-0.6-5.8-6.7-7.7-11.5-7.7c-3.6,0.3-5.7,2.2-5.7,4.6c0,2.5,2.1,2.8,4.8,3.4l6.3,0.9
					C188.3,80.5,193.1,81.7,193.1,89.1z"/>
			</g>
		</g>
	</g>
</g>
<g>
	<g>
		<g>
			<g>
				<path class="st2" d="M230.5-242.2h212.3v212.3H230.5V-242.2z"/>
			</g>
		</g>
	</g>
</g>
<g>
	<g>
		<g>
			<g>
				<path class="st3" d="M-8.5-124.2h86.2V-38H-8.5V-124.2z"/>
			</g>
		</g>
	</g>
</g>
</svg>
